<?xml version="1.0" encoding="UTF-8"?>
<svg xmlns="http://www.w3.org/2000/svg" viewBox="0 0 577.42 106.96">
  <g id="a"></g>
  <g id="b">
    <g id="c">
      <g>
        <path d="M0,45.09H9.16v11.98c3.35-10.31,8.89-12.89,27.84-12.89,21.14,0,27.2,5.28,27.2,23.46v3.61h-9.15v-3.22c0-13.15-3.74-16.11-20.62-16.11-18.3,0-25.26,5.03-25.26,18.3v35.83H0V45.09Z" style="fill:#003263;"></path>
        <path d="M92.05,45.09h9.15v60.96h-9.15V45.09Z" style="fill:#003263;"></path>
        <path d="M123.92,55.63h15.65v-10.51h9.76v10.32l46.39,.13v6.93l-46.39-.18-.32,24.59v.84c0,10.12,3.41,12.01,21.46,12.01,9.52,0,14.21-1.15,16.34-3.97,1.28-1.67,1.56-3.13,1.56-10.23v-1.68h9.1v1.99c0,9.71-.57,12.32-3.55,15.04-3.84,3.65-11.08,5.11-24.16,5.11-14.07,0-20.75-1.04-25.44-4.17-4.41-2.93-5.55-5.54-5.55-12.64v-2.3l.79-24.59h-15.65v-6.68Z" style="fill:#003263;"></path>
        <path d="M231.71,69.84c.13-5.16,.52-7.48,1.8-9.92,3.35-6.45,8.51-8,27.2-8s23.59,1.55,27.07,8c1.29,2.58,1.68,5.03,1.81,9.92h-57.88Zm67.54,7.48c.13-12.9-1.03-18.82-4.51-23.85-4.77-6.96-13.15-9.28-34.03-9.28-17.53,0-26.17,1.67-31.19,6.05-5.28,4.64-7.47,12.12-7.47,25.4s2.19,20.62,7.47,25.26c5.03,4.39,13.67,6.06,31.32,6.06,19.08,0,27.58-1.81,32.87-6.71,3.35-3.09,5.03-6.83,5.41-12.5h-9.41c-1.29,9.29-6.7,11.47-28.36,11.47-16.88,0-21.53-.9-25.52-4.9-3.35-3.35-4.12-6.31-4.12-17.01h67.54Z" style="fill:#003263;"></path>
        <path d="M315.39,45.09h9.15v12.12c3.99-11.09,10.44-13.79,32.61-13.79,13.67,0,20.37,1.42,25.27,5.41,4.51,3.74,6.31,9.02,6.31,18.82v38.41h-9.15v-37.89c0-13.15-4.51-16.11-25.01-16.11-21.91,0-30.03,4.9-30.03,18.17v35.83h-9.15V45.09Z" style="fill:#003263;"></path>
        <path d="M472.12,60.95c0-7.48-4.12-9.03-25.26-9.03-25.01,0-29.39,1.55-29.39,10.32,0,4.12,1.41,6.31,4.51,7.48,2.45,.9,6.44,1.03,23.08,1.16,23.07,.13,26.55,.52,31.71,3.09,4.77,2.45,6.7,6.45,6.7,14.44,0,8.77-2.45,13.41-8.38,15.86-5.54,2.19-11.47,2.71-30.16,2.71-20.5,0-26.81-.77-31.58-3.74-4.77-3.22-6.32-6.96-6.32-16.24v-1.55h9.41v1.55c0,6.19,.51,7.86,3.09,9.41,3.48,2.19,9.93,2.83,27.84,2.83,23.46,0,26.43-1.16,26.43-10.43,0-5.54-1.42-7.86-5.54-9.03q-3.22-.9-38.03-1.16c-17.27-.13-22.3-3.87-22.3-16.37,0-7.22,2.32-12.24,6.83-14.44,5.29-2.71,12.63-3.61,29.13-3.61,21.4,0,27.97,.9,32.74,4.64,3.35,2.58,4.77,6.31,4.77,12.5v1.03h-9.28v-1.42Z" style="fill:#003263;"></path>
        <path d="M509.87,69.84c.13-5.16,.52-7.48,1.8-9.92,3.35-6.45,8.51-8,27.2-8s23.59,1.55,27.07,8c1.29,2.57,1.68,5.03,1.8,9.92h-57.88Zm67.54,7.47c.13-12.89-1.03-18.82-4.51-23.84-4.77-6.96-13.15-9.28-34.03-9.28-17.53,0-26.17,1.67-31.19,6.05-5.28,4.64-7.47,12.12-7.47,25.39s2.19,20.63,7.47,25.26c5.03,4.39,13.66,6.06,31.32,6.06,19.08,0,27.58-1.81,32.87-6.71,3.35-3.09,5.02-6.83,5.41-12.5h-9.41c-1.29,9.28-6.7,11.47-28.36,11.47-16.89,0-21.53-.9-25.52-4.9-3.35-3.35-4.12-6.31-4.12-17.02h67.54Z" style="fill:#003263;"></path>
        <path d="M249.75,10.75c0,5.94-4.82,10.76-10.76,10.76s-10.76-4.82-10.76-10.76,4.82-10.75,10.76-10.75,10.76,4.82,10.76,10.75Z" style="fill:#ed6d3c;"></path>
        <path d="M330.06,10.75c0,5.94-4.82,10.76-10.76,10.76s-10.76-4.82-10.76-10.76,4.82-10.75,10.76-10.75,10.76,4.82,10.76,10.75Z" style="fill:#ed6d3c;"></path>
        <path d="M410.36,10.75c0,5.94-4.81,10.76-10.75,10.76s-10.76-4.82-10.76-10.76,4.81-10.75,10.76-10.75,10.75,4.82,10.75,10.75Z" style="fill:#ed6d3c;"></path>
        <path d="M490.66,10.75c0,5.94-4.82,10.76-10.76,10.76s-10.76-4.82-10.76-10.76,4.82-10.75,10.76-10.75,10.76,4.82,10.76,10.75Z" style="fill:#003263;"></path>
        <path d="M570.96,10.75c0,5.94-4.82,10.76-10.76,10.76s-10.76-4.82-10.76-10.76,4.82-10.75,10.76-10.75,10.76,4.82,10.76,10.75Z" style="fill:#ed6d3c;"></path>
      </g>
    </g>
  </g>
</svg>
